<?xml version="1.0" standalone="no"?><!DOCTYPE svg PUBLIC "-//W3C//DTD SVG 1.1//EN" "http://www.w3.org/Graphics/SVG/1.1/DTD/svg11.dtd"><svg t="1578315818522" class="icon" viewBox="0 0 1024 1024" version="1.1" xmlns="http://www.w3.org/2000/svg" p-id="1266" width="200" height="200" xmlns:xlink="http://www.w3.org/1999/xlink"><defs><style type="text/css"></style></defs><path d="M873.813333 848.213333c0 30.72-25.6 54.613333-54.613333 54.613334H128l97.28-455.68c0-30.72 23.893333-54.613333 54.613333-54.613334h634.88c30.72 0 54.613333 23.893333 54.613334 54.613334l-95.573334 401.066666zM238.933333 351.573333h621.226667v-54.613333c0-30.72-25.6-54.613333-54.613333-54.613333H474.453333v-49.493334c0-30.72-23.893333-54.613333-54.613333-54.613333H141.653333c-30.72 0-54.613333 25.6-54.613333 54.613333v657.066667l97.28-442.026667c0-32.426667 23.893333-56.32 54.613333-56.32z m0 0" fill="#efb336" p-id="1267"></path></svg>