<?xml version="1.0" standalone="no"?><!DOCTYPE svg PUBLIC "-//W3C//DTD SVG 1.1//EN" "http://www.w3.org/Graphics/SVG/1.1/DTD/svg11.dtd"><svg t="1574048512364" class="icon" viewBox="0 0 1024 1024" version="1.1" xmlns="http://www.w3.org/2000/svg" p-id="5414" xmlns:xlink="http://www.w3.org/1999/xlink" width="200" height="200"><defs><style type="text/css"></style></defs><path d="M940.224 375.168l-243.84 0C910.432 99.648 739.2 15.872 739.2 15.872 657.28 293.248 264.512 375.168 264.512 375.168L104.416 375.168c-16.768 0-27.936 29.76-27.936 29.76l0 443.04c3.712 61.44 63.296 65.152 63.296 65.152l119.136-5.6 7.456-26.048 22.336 13.024c7.456 37.248 210.368 83.776 210.368 83.776s90.08 22.976 175.712 29.792c255.968 4.384 189.12-221.536 189.12-221.536 89.344-81.92 55.84-230.816 55.84-230.816C966.272 520.32 940.224 375.168 940.224 375.168zM251.296 886.464 191.744 886.464 191.744 408.672l59.552 0L251.296 886.464z" fill="#f46009" p-id="5415"></path></svg>