<?xml version="1.0" standalone="no"?><!DOCTYPE svg PUBLIC "-//W3C//DTD SVG 1.1//EN" "http://www.w3.org/Graphics/SVG/1.1/DTD/svg11.dtd"><svg t="1574048181421" class="icon" viewBox="0 0 1024 1024" version="1.1" xmlns="http://www.w3.org/2000/svg" p-id="2797" xmlns:xlink="http://www.w3.org/1999/xlink" width="200" height="200"><defs><style type="text/css"></style></defs><path d="M193.625 917.938c41.625 0 75.937-32.438 75.937-73.219v-311.156c0-40.781-34.406-73.313-75.937-73.313h-25.313c-41.625 0-76.031 32.438-76.031 73.313v311.063c0 40.781 34.406 73.219 76.031 73.219h25.313zM193.625 867.031h-25.313c-14.344 0-25.406-10.406-25.406-22.406v-311.063c0-12 11.063-22.406 25.406-22.406h25.313c14.25 0 25.313 10.406 25.313 22.406v311.063c-0.094 12-11.063 22.406-25.313 22.406zM606.688 137.75c-9.844-11.813-22.594-20.156-37.031-25.969-9.188-3.656-17.063-5.625-25.5-7.031l-3.281-0.563-3.375 0.281c-16.781 1.688-25.781 4.688-35.25 15.375-7.219 8.156-10.031 13.688-25.969 48.187-37.969 93.844-75.75 172.031-107.719 217.5-15.563 22.219-30.563 39.937-44.25 53.531-7.875 7.781-13.312 12.375-15.75 14.156l-10.688 7.594v381.563c0 36.844 32.344 75.469 68.719 75.469h373.969c34.406 0 69.281-29.719 82.031-67.031 11.625-43.406 28.781-107.438 53.063-197.813 7.875-29.344 45.469-169.594 52.781-196.781 12.844-49.5-19.219-81.375-74.438-81.375h-240.938c20.719-116.531 21.938-203.25-6.375-237.094zM410 414.875c34.781-49.594 73.969-130.5 112.781-226.594 9.75-21.094 13.688-29.344 15.938-32.813 11.906 2.438 22.594 7.125 29.156 14.906 14.25 17.063 12.938 98.063-5.531 200.719-2.906 26.531-1.5 37.594 15.375 47.906 10.594 6.469 15.188 6.75 47.906 6.75h228.469c24.938 0 28.969 4.031 25.5 17.531-7.219 27-44.813 167.25-52.687 196.313-24.281 90.656-41.438 154.687-52.594 196.406-5.719 16.5-22.687 31.031-33.656 31.031h-374.063c-6.281 0-18-14.063-18-24.563v-356.25c16.031-13.875 37.312-37.031 61.406-71.344z" fill="" p-id="2798"></path></svg>