<?xml version="1.0" standalone="no"?><!DOCTYPE svg PUBLIC "-//W3C//DTD SVG 1.1//EN" "http://www.w3.org/Graphics/SVG/1.1/DTD/svg11.dtd"><svg class="icon" width="200px" height="200.00px" viewBox="0 0 1024 1024" version="1.1" xmlns="http://www.w3.org/2000/svg"><path d="M107.52 138.24v778.24h619.52v-691.2l-76.8-87.04z" fill="#fafcff" /><path d="M107.52 896h619.52v-547.84h-184.32v-209.92h-435.2z" fill="#fafcff" /><path d="M604.16 81.92H102.4c-30.72 0-51.2 25.6-51.2 51.2v768c0 30.72 25.6 51.2 51.2 51.2h634.88c30.72 0 51.2-25.6 51.2-51.2v-609.28l-184.32-209.92z m0 71.68l112.64 138.24h-112.64v-138.24z m122.88 742.4h-614.4v-757.76h435.2v158.72c0 30.72 25.6 51.2 51.2 51.2h133.12v547.84z" fill="#959ca9" /><path d="M693.016634 726.09187l61.874654-45.494695 194.110697 263.998522-61.874653 45.494695z" fill="#505d80" /><path d="M660.48 409.6c-102.4 0-184.32 81.92-184.32 184.32s81.92 184.32 184.32 184.32 184.32-81.92 184.32-184.32-81.92-184.32-184.32-184.32z m0 296.96c-61.44 0-112.64-51.2-112.64-112.64s51.2-112.64 112.64-112.64 112.64 51.2 112.64 112.64-51.2 112.64-112.64 112.64z" fill="#959ca9" /><path d="M660.48 593.92m-112.64 0a112.64 112.64 0 1 0 225.28 0 112.64 112.64 0 1 0-225.28 0Z" fill="#d7e3f9" /></svg>