<?xml version="1.0" standalone="no"?><!DOCTYPE svg PUBLIC "-//W3C//DTD SVG 1.1//EN" "http://www.w3.org/Graphics/SVG/1.1/DTD/svg11.dtd"><svg t="1574048412185" class="icon" viewBox="0 0 1365 1024" version="1.1" xmlns="http://www.w3.org/2000/svg" p-id="3632" xmlns:xlink="http://www.w3.org/1999/xlink" width="266.6015625" height="200"><defs><style type="text/css"></style></defs><path d="M563.956 1023.537c-14.287 0-28.355-5.608-38.961-16.287L24.43 551.814C8.436 535.796 0.366 515.267 1.073 494.275a76.751 76.751 0 0 1 25.746-54.808L568.271 11.045a45.958 45.958 0 0 1 48.177-6.632 46.47 46.47 0 0 1 27.16 41.74l1.707 199.46c511.537 65.732 671.963 497.42 717.288 680.912a50.859 50.859 0 0 1-25.99 57.856 51.517 51.517 0 0 1-63.245-13.166C1120.89 788.407 724.748 757.03 619.203 751.811v216.137a55.345 55.345 0 0 1-34.085 51.273 53.394 53.394 0 0 1-21.162 4.316z m8.338-66.292l0.707 0.731c-0.17-0.243-0.487-0.487-0.731-0.731z m3.072-863.817L70.802 492.568c-0.536 0.561-0.95 2.634-0.975 4.023a7.022 7.022 0 0 0 2.048 5.29l478.72 435.542V740.328c0-15.8 6.485-31.11 17.75-41.984 11.288-10.85 25.38-16.823 41.861-15.921 113.713 4.51 474.649 31.793 667.453 195.925-61.196-191.39-226.547-515.316-650.313-565.297a57.125 57.125 0 0 1-50.566-56.149l-1.39-163.474z" fill="#8a8a8a" p-id="3633"></path></svg>